<?xml version="1.0" standalone="no"?>
<!DOCTYPE svg PUBLIC "-//W3C//DTD SVG 20010904//EN"
 "http://www.w3.org/TR/2001/REC-SVG-20010904/DTD/svg10.dtd">
<svg version="1.0" xmlns="http://www.w3.org/2000/svg"
 width="140.000000pt" height="142.000000pt" viewBox="0 0 140.000000 142.000000"
 preserveAspectRatio="xMidYMid meet">

<g transform="translate(0.000000,142.000000) scale(0.100000,-0.100000)"
fill="#000000" stroke="none">
<path d="M955 1308 c-28 -16 -567 -546 -582 -572 -26 -45 -32 -39 334 -392
184 -179 258 -244 275 -244 36 1 61 26 61 62 0 29 -26 58 -263 288 l-263 256
247 244 c136 134 251 247 255 250 39 25 30 93 -14 110 -31 12 -25 12 -50 -2z"/>
</g>
</svg>
