<?xml version="1.0" standalone="no"?>
<!DOCTYPE svg PUBLIC "-//W3C//DTD SVG 20010904//EN"
 "http://www.w3.org/TR/2001/REC-SVG-20010904/DTD/svg10.dtd">
<svg version="1.0" xmlns="http://www.w3.org/2000/svg"
 width="140.000000pt" height="142.000000pt" viewBox="0 0 140.000000 142.000000"
 preserveAspectRatio="xMidYMid meet">

<g transform="translate(0.000000,142.000000) scale(0.100000,-0.100000)"
fill="#000000" stroke="none">
<path d="M503 1330 c-24 -10 -43 -39 -43 -65 0 -10 119 -134 265 -278 l266
-260 -267 -261 c-256 -251 -267 -263 -260 -291 4 -17 14 -36 23 -43 41 -31 57
-19 355 271 160 155 294 292 299 305 5 14 5 30 0 41 -12 21 -499 505 -559 555
-48 39 -47 39 -79 26z"/>
</g>
</svg>
