<svg data-v-7f60a732="" data-v-4a36735c="" data-v-2712e8b8="" data-v-93cb50b6="" aria-hidden="true" 
xmlns="http://www.w3.org/2000/svg" 
class="svg-icon swift-file-icon file-icon" viewBox="0 0 15 14">
    <path data-v-4a36735c="" data-v-7f60a732="" d="M14.93,13.56A2.15,2.15,0,0,0,15,13a5.37,5.37,0,0,0-1.27-3.24A6.08,6.08,0,0,0,14,7.91,9.32,9.32,0,0,0,9.21.31a8.51,8.51,0,0,1,1.78,5,6.4,6.4,0,0,1-.41,2.18A45.06,45.06,0,0,1,3.25,1.54,44.57,44.57,0,0,0,7.54,6.9,45.32,45.32,0,0,1,1.47,2.32,35.69,35.69,0,0,0,8.56,9.94a6.06,6.06,0,0,1-3.26.85A9.48,9.48,0,0,1,0,8.91a10,10,0,0,0,8.1,4.72c2.55,0,3.25-1.2,4.72-1.2a2.09,2.09,0,0,1,1.91,1.15C14.79,13.69,14.88,13.75,14.93,13.56Z">
    </path>
</svg>