<?xml version="1.0" standalone="no"?>
<!DOCTYPE svg PUBLIC "-//W3C//DTD SVG 20010904//EN"
 "http://www.w3.org/TR/2001/REC-SVG-20010904/DTD/svg10.dtd">
<svg version="1.0" xmlns="http://www.w3.org/2000/svg"
 width="610.000000pt" height="1258.000000pt" viewBox="0 0 610.000000 1258.000000"
 preserveAspectRatio="xMidYMid meet">

<g transform="translate(0.000000,1258.000000) scale(0.100000,-0.100000)"
fill="#000000" stroke="none">
<path d="M1065 12549 c-354 -12 -562 -83 -744 -254 -149 -140 -236 -311 -278
-546 -17 -100 -18 -302 -18 -5464 0 -5162 1 -5364 18 -5464 77 -437 342 -703
777 -782 111 -21 4349 -21 4460 0 207 37 369 114 499 236 149 140 236 311 278
546 17 100 18 302 18 5469 0 5042 -1 5371 -17 5461 -77 424 -333 689 -748 774
-43 9 -155 18 -260 21 -265 8 -3769 10 -3985 3z m909 -262 c19 -19 24 -37 29
-112 10 -142 64 -227 176 -279 46 -21 53 -21 871 -21 l825 0 57 28 c106 52
155 134 165 274 5 73 10 91 29 110 l23 23 468 0 c257 0 509 -5 558 -10 201
-23 337 -82 450 -195 113 -113 172 -249 195 -450 14 -125 14 -10605 0 -10730
-23 -201 -82 -337 -195 -450 -113 -113 -249 -172 -450 -195 -123 -14 -4127
-14 -4250 0 -201 23 -337 82 -450 195 -113 113 -172 249 -195 450 -14 125 -14
10605 0 10730 23 201 82 337 195 450 110 110 250 172 436 194 41 5 291 9 557
10 l483 1 23 -23z"/>
</g>
</svg>
